<svg width="30" height="30" viewBox="0 0 30 30" fill="none" xmlns="http://www.w3.org/2000/svg">
<path d="M24.9186 6.91884C23.0371 9.15344 20.6285 10.8849 17.8818 11.9292L17.7637 11.9682C18.0638 12.5804 18.3509 13.1995 18.614 13.8257C18.714 14.0507 18.801 14.2758 18.889 14.4879C19.8163 14.3858 20.8926 14.3278 21.9819 14.3278C24.0454 14.3278 26.0599 14.5359 28.0065 14.933L27.8134 14.9C27.7934 11.8592 26.7061 9.07742 24.9086 6.90384L24.9256 6.92485L24.9186 6.91884ZM12.0002 2.56568C13.5956 4.71626 15.177 7.16691 16.5994 9.71859L16.7775 10.0657C19.4902 9.15744 21.7678 7.55401 23.4733 5.46446L23.4943 5.43845C21.2467 3.43192 18.2649 2.20559 14.998 2.20559C13.9347 2.20559 12.9014 2.33562 11.9132 2.58069L12.0012 2.56268L12.0002 2.56568ZM2.45666 12.3943C6.67678 12.3723 10.7539 11.8041 14.6359 10.7579L14.3028 10.8339C12.6504 7.93412 11.08 5.51447 9.3895 3.18785L9.55255 3.42391C5.95559 5.14537 3.32389 8.39124 2.47366 12.3013L2.45866 12.3863L2.45666 12.3943ZM5.48146 23.5873C7.90211 19.7043 11.4931 16.7465 15.7552 15.177L15.8962 15.132C16.0653 15.076 16.2333 15.027 16.4024 14.982C16.0773 14.2508 15.7272 13.5236 15.3621 12.8074C11.4731 13.9617 7.00487 14.6269 2.38163 14.6269C2.31562 14.6269 2.2506 14.6269 2.18558 14.6269H2.19559L2.19058 15.017C2.19058 15.02 2.19058 15.023 2.19058 15.026C2.19058 18.3239 3.44092 21.3297 5.49246 23.5963L5.48246 23.5853L5.48146 23.5873ZM20.0063 26.8121C19.3242 23.1122 18.3759 19.8533 17.1426 16.7395L17.2686 17.1006L17.1866 17.1256C12.8714 18.4719 9.3585 21.3187 7.18191 25.0427L7.1369 25.1257C9.28247 26.8141 12.0232 27.8334 15.002 27.8334C16.8075 27.8334 18.5249 27.4593 20.0814 26.7841L19.9983 26.8161L20.0063 26.8121ZM27.6494 17.0525C26.078 16.5784 24.2725 16.3053 22.403 16.3053C21.4387 16.3053 20.4915 16.3784 19.5662 16.5184L19.6702 16.5054C20.6505 19.0701 21.5127 22.1359 22.1069 25.2967L22.1609 25.6408C25.0357 23.6803 27.0552 20.6465 27.6444 17.1286L27.6544 17.0535L27.6494 17.0525ZM15 30C6.71579 30 0 23.2842 0 15C0 6.71579 6.71579 0 15 0C23.2842 0 30 6.71579 30 15C29.989 23.2792 23.2792 29.988 15 30Z" fill="#B7B2B3"/>
</svg>
