<svg width="55" height="30" viewBox="0 0 55 30" fill="none" xmlns="http://www.w3.org/2000/svg">
<path fill-rule="evenodd" clip-rule="evenodd" d="M35.6933 4.88582H49.6836V1.52344H35.6933V4.88582ZM42.5894 11.6387C39.4686 11.6387 37.0984 13.2614 36.8702 16.2598H48.0668C47.3079 12.7013 45.4243 11.6387 42.5894 11.6387ZM43.0266 25.5457C45.9083 25.5457 48.0228 24.018 48.4545 22.731H54.5147C52.7824 27.3858 49.2051 30 42.7819 30C34.5852 30 29.985 25.1072 29.985 18.6148C29.985 3.32519 56.2718 2.77703 54.9519 20.0424H36.8702C37.0461 23.5485 38.7702 25.5457 43.0266 25.5457ZM15.7555 24.873C19.0634 24.873 21.3786 23.8051 21.3786 20.9236C21.3786 17.9348 19.3328 16.6384 15.8985 16.6384H7.61106V24.873H15.7555ZM15.3183 12.1436C18.0707 12.1436 19.9708 11.0683 19.9708 8.57046C19.9708 5.93919 17.76 5.12695 14.7382 5.12695H7.61106V12.1436H15.3183ZM16.289 0C22.8084 0 27.3398 1.80853 27.3398 7.43577C27.3398 10.222 26.0063 12.2984 22.6379 13.6974C26.9494 14.7723 28.9896 17.5948 28.9896 21.3033C28.9896 27.1904 23.4271 30 16.7729 30H0V0H16.289Z" fill="#B7B2B3"/>
</svg>
